<svg width="26" height="26" viewBox="0 0 26 26" fill="none" xmlns="http://www.w3.org/2000/svg">
<path d="M21.4862 2.03886L1.53868 21.9863C0.896266 22.6288 0.896267 23.6703 1.53868 24.3127L1.68717 24.4612C2.32958 25.1036 3.37114 25.1036 4.01355 24.4612L23.961 4.51374C24.6034 3.87133 24.6034 2.82977 23.961 2.18736L23.8125 2.03886C23.1701 1.39645 22.1286 1.39645 21.4862 2.03886Z" fill="black"/>
<path d="M24.5855 22.1107L4.63804 2.16319C3.99563 1.52078 2.95408 1.52078 2.31166 2.16319L2.16317 2.31168C1.52076 2.9541 1.52076 3.99565 2.16317 4.63806L22.1107 24.5855C22.7531 25.228 23.7946 25.228 24.437 24.5855L24.5855 24.4371C25.2279 23.7946 25.2279 22.7531 24.5855 22.1107Z" fill="black"/>
</svg>
