<svg width="37" height="38" viewBox="0 0 37 38" fill="none" xmlns="http://www.w3.org/2000/svg">
<path d="M9.3519 10.8713C9.00433 10.6766 8.58397 10.6863 8.24507 10.8969C7.90617 11.1076 7.69864 11.4881 7.69864 11.8988V26.6807C7.69864 27.3252 8.20077 27.8477 8.82018 27.8477C9.43959 27.8477 9.94172 27.3252 9.94172 26.6807V13.8526L18.0085 18.3723C18.3404 18.5582 18.74 18.5582 19.0719 18.3723L27.1387 13.8526V26.6807C27.1387 27.3252 27.6408 27.8477 28.2602 27.8477C28.8796 27.8477 29.3818 27.3252 29.3818 26.6807V11.8988C29.3818 11.4881 29.1742 11.1076 28.8353 10.8969C28.4964 10.6863 28.0761 10.6766 27.7285 10.8713L18.5402 16.0193L9.3519 10.8713Z" fill="#E60000"/>
<path fill-rule="evenodd" clip-rule="evenodd" d="M26.4816 6.02004C21.1979 5.52847 15.8826 5.52847 10.5988 6.02004L8.32982 6.23114C5.8959 6.45758 3.92936 8.39233 3.57586 10.9082C2.83116 16.2084 2.83116 21.5931 3.57586 26.8933C3.92936 29.4092 5.8959 31.3439 8.32982 31.5703L10.5988 31.7814C15.8826 32.273 21.1979 32.273 26.4816 31.7814L28.7506 31.5703C31.1845 31.3439 33.1511 29.4092 33.5046 26.8933C34.2493 21.5931 34.2493 16.2084 33.5046 10.9082C33.1511 8.39233 31.1845 6.45758 28.7506 6.23114L26.4816 6.02004ZM10.7986 8.34475C15.9494 7.86554 21.131 7.86554 26.2818 8.34475L28.5509 8.55585C29.9507 8.68608 31.0818 9.79885 31.2851 11.2459C31.9983 16.3221 31.9983 21.4793 31.2851 26.5556C31.0818 28.0026 29.9507 29.1154 28.5509 29.2456L26.2818 29.4567C21.131 29.9359 15.9494 29.9359 10.7986 29.4567L8.52958 29.2456C7.12972 29.1154 5.99866 28.0026 5.79535 26.5556C5.08211 21.4793 5.08211 16.3221 5.79535 11.2459C5.99866 9.79885 7.12972 8.68608 8.52958 8.55585L10.7986 8.34475Z" fill="#E60000"/>
</svg>
