<svg width="32" height="32" viewBox="0 0 32 32" fill="none" xmlns="http://www.w3.org/2000/svg">
<path d="M15.9997 0C7.17757 0 0 7.17757 0 16C0 24.8227 7.17757 32 15.9997 32C24.8222 32 32 24.8227 32 16C31.9997 7.17757 24.8219 0 15.9997 0ZM15.9997 30.4219C8.0476 30.4219 1.57806 23.9524 1.57806 16C1.57806 8.04787 8.0476 1.57806 15.9997 1.57806C23.9519 1.57806 30.4219 8.04787 30.4219 16C30.4217 23.9524 23.9519 30.4219 15.9997 30.4219Z" fill="#484E53"/>
<path d="M22 21V13H14V12.5C14 11.673 14.673 11 15.5 11H17V8H15.5C14.3069 8.00132 13.1631 8.47585 12.3195 9.31948C11.4759 10.1631 11.0013 11.3069 11 12.5V13H9V16H11V21H9V24H16V21H14V16H19.028V21H17V24H24V21H22Z" fill="#A9A9A9"/>
<path d="M20.5 11C21.3284 11 22 10.3284 22 9.5C22 8.67157 21.3284 8 20.5 8C19.6716 8 19 8.67157 19 9.5C19 10.3284 19.6716 11 20.5 11Z" fill="#A9A9A9"/>
</svg>
