<svg width="32" height="32" viewBox="0 0 32 32" fill="none" xmlns="http://www.w3.org/2000/svg">
<path d="M15.9997 0C7.17757 0 0 7.17757 0 16C0 24.8224 7.17757 32 15.9997 32C24.8222 32 32 24.8224 32 16C32 7.17757 24.8219 0 15.9997 0ZM15.9997 30.4219C8.0476 30.4219 1.57806 23.9521 1.57806 16C1.57806 8.04787 8.0476 1.57806 15.9997 1.57806C23.9519 1.57806 30.4219 8.04787 30.4219 16C30.4219 23.9521 23.9519 30.4219 15.9997 30.4219Z" fill="#484E53"/>
<path d="M16 6C13.6255 6.0001 11.3285 6.84511 9.51999 8.38385C7.71149 9.92258 6.50953 12.0546 6.12916 14.3985C5.74879 16.7423 6.21485 19.1451 7.44393 21.1768C8.67301 23.2084 10.5849 24.7365 12.8375 25.4875C13.3375 25.575 13.525 25.275 13.525 25.0125C13.525 24.775 13.5125 23.9875 13.5125 23.15C11 23.6125 10.35 22.5375 10.15 21.975C9.9281 21.428 9.5763 20.9431 9.12503 20.5625C8.77503 20.375 8.27503 19.9125 9.11252 19.9C9.4323 19.9347 9.73901 20.046 10.0067 20.2244C10.2743 20.4028 10.495 20.6432 10.65 20.925C10.7868 21.1707 10.9707 21.387 11.1912 21.5615C11.4117 21.736 11.6645 21.8653 11.9351 21.9419C12.2056 22.0185 12.4886 22.041 12.7679 22.0081C13.0472 21.9752 13.3172 21.8875 13.5625 21.75C13.6058 21.2416 13.8324 20.7663 14.2 20.4125C11.975 20.1625 9.65003 19.3 9.65003 15.475C9.63597 14.4812 10.0027 13.5196 10.675 12.7875C10.3693 11.9237 10.4051 10.9758 10.775 10.1375C10.775 10.1375 11.6125 9.87502 13.525 11.1625C15.1613 10.7125 16.8887 10.7125 18.525 11.1625C20.4375 9.86253 21.275 10.1375 21.275 10.1375C21.645 10.9758 21.6808 11.9238 21.375 12.7875C22.0494 13.5184 22.4164 14.4808 22.4 15.475C22.4 19.3125 20.0625 20.1625 17.8375 20.4125C18.0762 20.6544 18.26 20.9448 18.3764 21.264C18.4929 21.5833 18.5393 21.9238 18.5125 22.2625C18.5125 23.6 18.5 24.675 18.5 25.0125C18.5 25.275 18.6875 25.5875 19.1875 25.4875C21.4362 24.7304 23.3426 23.1988 24.5664 21.166C25.7903 19.1333 26.2519 16.7318 25.8689 14.3902C25.4859 12.0486 24.2832 9.91937 22.4755 8.38251C20.6678 6.84565 18.3727 6.00123 16 6Z" fill="#A9A9A9"/>
</svg>
