<svg width="26" height="18" viewBox="0 0 26 18" fill="none" xmlns="http://www.w3.org/2000/svg">
<path d="M0.5 18V0.499999H6.4125C7.2625 0.499999 8.03333 0.674999 8.725 1.025C9.425 1.36667 9.97917 1.87083 10.3875 2.5375C10.8042 3.19583 11.0125 3.99583 11.0125 4.9375C11.0125 5.47083 10.9167 5.97917 10.725 6.4625C10.5333 6.94583 10.2833 7.35833 9.975 7.7C9.66667 8.03333 9.33333 8.25 8.975 8.35C9.49167 8.48333 9.9375 8.71667 10.3125 9.05C10.6875 9.375 10.9958 9.7625 11.2375 10.2125C11.4792 10.6542 11.6542 11.1208 11.7625 11.6125C11.8792 12.1042 11.9375 12.5875 11.9375 13.0625C11.9375 14.0458 11.7208 14.9083 11.2875 15.65C10.8625 16.3917 10.2917 16.9708 9.575 17.3875C8.85833 17.7958 8.0625 18 7.1875 18H0.5ZM2.25 16.4375H7.05C7.65833 16.4375 8.20833 16.2792 8.7 15.9625C9.2 15.6458 9.59583 15.2125 9.8875 14.6625C10.1875 14.1125 10.3375 13.4917 10.3375 12.8C10.3375 12.1833 10.1875 11.6042 9.8875 11.0625C9.59583 10.5125 9.2 10.0708 8.7 9.7375C8.20833 9.39583 7.65833 9.225 7.05 9.225H2.25V16.4375ZM2.25 7.6875H6.2625C7.0875 7.6875 7.79167 7.45 8.375 6.975C8.96667 6.49167 9.2625 5.80833 9.2625 4.925C9.2625 3.95833 8.96667 3.24167 8.375 2.775C7.79167 2.3 7.0875 2.0625 6.2625 2.0625H2.25V7.6875ZM14.8457 18V0.499999H25.4957V2.25H16.5957V7.75H23.9582V9.5H16.5957V16.25H25.4957V18H14.8457Z" fill="#A9A9A9"/>
</svg>
