<svg width="31" height="27" viewBox="0 0 31 27" fill="none" xmlns="http://www.w3.org/2000/svg">
<path d="M1 13H20M5.5 10H5.509M9.5 10H9.509M1 16C1 11.522 1 9.282 2.391 7.891C3.782 6.5 6.021 6.5 10.5 6.5C14.978 6.5 17.218 6.5 18.609 7.891C20 9.282 20 11.521 20 16C20 20.478 20 22.718 18.609 24.109C17.218 25.5 14.979 25.5 10.5 25.5C6.022 25.5 3.782 25.5 2.391 24.109C1 22.718 1 20.479 1 16Z" stroke="#A9A9A9" stroke-width="1.5" stroke-linecap="round" stroke-linejoin="round"/>
<path d="M6.5 17L7.727 18.057C8.242 18.502 8.5 18.724 8.5 19C8.5 19.276 8.242 19.498 7.727 19.943L6.5 21M10.5 21H14.5" stroke="#A9A9A9" stroke-width="1.5" stroke-linecap="round" stroke-linejoin="round"/>
<path d="M28.5 14L24.5 10M16.5 6.66667C16.5 7.2795 16.6207 7.88634 16.8552 8.45252C17.0898 9.01871 17.4335 9.53316 17.8668 9.9665C18.3002 10.3998 18.8146 10.7436 19.3808 10.9781C19.947 11.2126 20.5538 11.3333 21.1667 11.3333C21.7795 11.3333 22.3863 11.2126 22.9525 10.9781C23.5187 10.7436 24.0332 10.3998 24.4665 9.9665C24.8998 9.53316 25.2436 9.01871 25.4781 8.45252C25.7126 7.88634 25.8333 7.2795 25.8333 6.66667C25.8333 6.05383 25.7126 5.447 25.4781 4.88081C25.2436 4.31462 24.8998 3.80018 24.4665 3.36683C24.0332 2.93349 23.5187 2.58975 22.9525 2.35523C22.3863 2.12071 21.7795 2 21.1667 2C20.5538 2 19.947 2.12071 19.3808 2.35523C18.8146 2.58975 18.3002 2.93349 17.8668 3.36683C17.4335 3.80018 17.0898 4.31462 16.8552 4.88081C16.6207 5.447 16.5 6.05383 16.5 6.66667Z" stroke="#A9A9A9" stroke-width="2" stroke-linecap="round" stroke-linejoin="round"/>
</svg>
