<svg width="32" height="19" viewBox="0 0 32 19" fill="none" xmlns="http://www.w3.org/2000/svg">
<path d="M7.2875 18.325C5.8875 18.325 4.67917 17.9833 3.6625 17.3C2.64583 16.6167 1.8625 15.7 1.3125 14.55C0.770833 13.3917 0.5 12.1083 0.5 10.7V0.499999H2.25V10.7C2.25 11.7667 2.44583 12.7458 2.8375 13.6375C3.22917 14.5292 3.8 15.2417 4.55 15.775C5.3 16.3083 6.2125 16.575 7.2875 16.575C8.3875 16.575 9.30833 16.3083 10.05 15.775C10.8 15.2333 11.3667 14.5167 11.75 13.625C12.1333 12.7333 12.325 11.7583 12.325 10.7V0.499999H14.075V10.7C14.075 11.7583 13.9167 12.75 13.6 13.675C13.2917 14.5917 12.8417 15.4 12.25 16.1C11.6667 16.8 10.9542 17.3458 10.1125 17.7375C9.27917 18.1292 8.3375 18.325 7.2875 18.325ZM16.9521 18L23.3646 9.2L17.0271 0.499999H19.1896L24.4396 7.725L29.7021 0.499999H31.8646L25.5396 9.2L31.9396 18H29.7646L24.4396 10.7L19.1396 18H16.9521Z" fill="#A9A9A9"/>
</svg>
